<svg xmlns="http://www.w3.org/2000/svg" xmlns:xlink="http://www.w3.org/1999/xlink" width="20.002" height="20" viewBox="0 0 20.002 20"><defs><clipPath id="a"><rect width="20.002" height="20" fill="none"/></clipPath></defs><g clip-path="url(#a)"><g transform="translate(-1.998 -2)"><path d="M15,11H13V9a1,1,0,0,0-2,0v2H9a1,1,0,0,0,0,2h2v2a1,1,0,0,0,2,0V13h2a1,1,0,0,0,0-2Z" fill="#fff"/><path d="M12,2A10,10,0,0,0,4.257,18.33L2.293,20.293A1,1,0,0,0,3,22h9A10,10,0,0,0,12,2Zm3,11H13v2a1,1,0,0,1-2,0V13H9a1,1,0,0,1,0-2h2V9a1,1,0,0,1,2,0v2h2a1,1,0,0,1,0,2Z" fill="#2699fb"/></g></g></svg>