<svg xmlns="http://www.w3.org/2000/svg" width="15.944" height="13.095" viewBox="0 0 15.944 13.095"><rect width="15.944" height="11.856" transform="translate(0 0.653)" fill="none"/><path d="M6.076,6.547A1.694,1.694,0,0,1,7.813,8.184,1.694,1.694,0,0,1,6.076,9.821,1.694,1.694,0,0,1,4.34,8.184,1.694,1.694,0,0,1,6.076,6.547Zm0-4.911A1.694,1.694,0,0,0,4.34,3.274H7.813A1.694,1.694,0,0,0,6.076,1.637Zm4.34,11.458H1.736A1.694,1.694,0,0,1,0,11.458V4.911A1.694,1.694,0,0,1,1.736,3.274H2.6A3.387,3.387,0,0,1,6.076,0,3.387,3.387,0,0,1,9.549,3.274h.868a1.694,1.694,0,0,1,1.736,1.637v6.547A1.694,1.694,0,0,1,10.417,13.095Z" transform="translate(2.213)" fill="#2699fb"/></svg>