<svg xmlns="http://www.w3.org/2000/svg" width="15.046" height="15.046" viewBox="0 0 15.046 15.046">
  <path id="company-icon" d="M17.65,17.254H16.462V6.564a.388.388,0,0,0-.269-.4l-2.9-1.212v12.3H12.5V3.4a.4.4,0,0,0-.4-.4H4.98a.4.4,0,0,0-.4.4V17.254H3.4a.4.4,0,0,0,0,.792H17.65a.4.4,0,0,0,0-.792Zm-3.168-9.5h.792a.4.4,0,0,1,.4.4.4.4,0,0,1-.4.4h-.792a.4.4,0,0,1-.4-.4A.4.4,0,0,1,14.483,7.751Zm0,2.376h.792a.4.4,0,0,1,0,.792h-.792a.4.4,0,0,1,0-.792Zm0,2.376h.792a.4.4,0,0,1,.4.4.4.4,0,0,1-.4.4h-.792a.4.4,0,0,1-.4-.4.4.4,0,0,1,.4-.4Zm0,2.376h.792a.4.4,0,0,1,0,.792h-.792a.4.4,0,1,1,0-.792Zm-5.147-9.5h.792a.4.4,0,1,1,0,.792H9.335a.4.4,0,1,1,0-.792Zm0,2.376h.792a.4.4,0,0,1,0,.792H9.335a.4.4,0,0,1,0-.792Zm0,2.376h.792a.4.4,0,0,1,0,.792H9.335a.4.4,0,0,1,0-.792Zm0,2.376h.792a.4.4,0,0,1,0,.792H9.335a.4.4,0,0,1,0-.792ZM6.912,5.376h.839a.4.4,0,1,1,0,.792H6.96a.4.4,0,1,1,0-.792Zm0,2.376h.839a.4.4,0,0,1,0,.792H6.96a.4.4,0,0,1,0-.792Zm0,2.376h.839a.4.4,0,0,1,0,.792H6.96a.4.4,0,0,1,0-.792Zm0,2.376h.839a.4.4,0,0,1,0,.792H6.96a.4.4,0,0,1,0-.792Zm2.027,4.751V15.67H8.147v1.584H7.355v-2a.4.4,0,0,1,.4-.372H9.335a.4.4,0,0,1,.4.4v1.98Z" transform="translate(-3 -3)" fill="#0E73C9"/>
</svg>
