<svg xmlns="http://www.w3.org/2000/svg" width="19.916" height="11.38" viewBox="0 0 19.916 11.38"><g transform="translate(-148.171 -194.383)"><path d="M41.958,128c-3.641,0-6.477,2.169-9.958,5.69,3,3.009,5.512,5.69,9.958,5.69s7.709-3.4,9.958-5.628C49.613,131.138,46.35,128,41.958,128Zm0,9.749a4.059,4.059,0,1,1,3.983-4.059A4.027,4.027,0,0,1,41.958,137.749Z" transform="translate(116.171 66.383)" fill="#fff"/><path d="M206.868,203.99a1.944,1.944,0,0,1,.46-1.254,2.89,2.89,0,0,0-.46-.036,3.229,3.229,0,1,0,3.168,3.228c0-.139-.012-.279-.024-.418a1.94,1.94,0,0,1-3.143-1.52Z" transform="translate(-48.74 -5.851)" fill="#fff"/></g></svg>