<svg xmlns="http://www.w3.org/2000/svg" width="20.57" height="20.57" viewBox="0 0 20.57 20.57"><path d="M3.306,4.408a1.769,1.769,0,0,1,1.3.54,1.769,1.769,0,0,1,.54,1.3V18.734a1.769,1.769,0,0,1-.54,1.3,1.769,1.769,0,0,1-1.3.54H1.837a1.769,1.769,0,0,1-1.3-.54,1.769,1.769,0,0,1-.54-1.3V6.245a1.769,1.769,0,0,1,.54-1.3,1.769,1.769,0,0,1,1.3-.54ZM19.1,6.279a2.974,2.974,0,0,1,1.068,1.068,2.829,2.829,0,0,1,.4,1.469v8.816a2.939,2.939,0,0,1-2.939,2.939H7.714a1.842,1.842,0,0,1-1.837-1.837V1.1A1.063,1.063,0,0,1,6.2.321,1.063,1.063,0,0,1,6.979,0h7.714A2.65,2.65,0,0,1,15.7.23a2.671,2.671,0,0,1,.872.551L18.32,2.525a2.671,2.671,0,0,1,.551.872,2.65,2.65,0,0,1,.23,1.01ZM10.652,17.632V16.162a.354.354,0,0,0-.367-.367H8.816a.354.354,0,0,0-.367.367v1.469A.354.354,0,0,0,8.816,18h1.469a.354.354,0,0,0,.367-.367Zm0-2.939V13.224a.354.354,0,0,0-.367-.367H8.816a.354.354,0,0,0-.367.367v1.469a.354.354,0,0,0,.367.367h1.469a.354.354,0,0,0,.367-.367Zm0-2.939V10.285a.354.354,0,0,0-.367-.367H8.816a.354.354,0,0,0-.367.367v1.469a.354.354,0,0,0,.367.367h1.469a.354.354,0,0,0,.367-.367Zm2.939,5.877V16.162a.354.354,0,0,0-.367-.367H11.754a.354.354,0,0,0-.367.367v1.469a.354.354,0,0,0,.367.367h1.469a.354.354,0,0,0,.367-.367Zm0-2.939V13.224a.354.354,0,0,0-.367-.367H11.754a.354.354,0,0,0-.367.367v1.469a.354.354,0,0,0,.367.367h1.469a.354.354,0,0,0,.367-.367Zm0-2.939V10.285a.354.354,0,0,0-.367-.367H11.754a.354.354,0,0,0-.367.367v1.469a.354.354,0,0,0,.367.367h1.469a.354.354,0,0,0,.367-.367Zm2.939,5.877V16.162a.354.354,0,0,0-.367-.367H14.693a.354.354,0,0,0-.367.367v1.469a.354.354,0,0,0,.367.367h1.469a.354.354,0,0,0,.367-.367Zm0-2.939V13.224a.354.354,0,0,0-.367-.367H14.693a.354.354,0,0,0-.367.367v1.469a.354.354,0,0,0,.367.367h1.469a.354.354,0,0,0,.367-.367Zm0-2.939V10.285a.354.354,0,0,0-.367-.367H14.693a.354.354,0,0,0-.367.367v1.469a.354.354,0,0,0,.367.367h1.469a.354.354,0,0,0,.367-.367Zm1.1-4.408V4.408H15.8a1.1,1.1,0,0,1-1.1-1.1V1.469H7.347V7.347Z" fill="#0E73C9"/></svg>