<svg xmlns="http://www.w3.org/2000/svg" width="15.866" height="19.039" viewBox="0 0 15.866 19.039"><path d="M19.808,12.5a1.056,1.056,0,0,0-1.058,1.058V30.481a1.137,1.137,0,0,0,1.058,1.058h9.52a1.137,1.137,0,0,0,1.058-1.058V25.193h.529a.518.518,0,0,1,.529.529v2.116a1.4,1.4,0,0,0,1.587,1.587,1.4,1.4,0,0,0,1.587-1.587V22.02c0-1.058-2.115-2.115-2.115-3.173V15.673H31.443l-1.058-1.058V13.558A1.056,1.056,0,0,0,29.327,12.5Zm1.058,2.115h7.4v4.231h-7.4Zm9.52,3.173h1.058v1.587c0,1.058,2.115,2.116,2.115,3.173v5.289a.529.529,0,1,1-1.058,0V25.193a1.138,1.138,0,0,0-1.058-1.058H30.385Z" transform="translate(-18.75 -12.5)" fill="#0E73C9"/></svg>