<svg xmlns="http://www.w3.org/2000/svg" width="12.581" height="8.717" viewBox="0 0 12.581 8.717"><path d="M12.505,8.527A6.986,6.986,0,0,0,6.291,4.5,6.987,6.987,0,0,0,.076,8.527a.76.76,0,0,0,0,.663,6.986,6.986,0,0,0,6.215,4.027A6.987,6.987,0,0,0,12.505,9.19.76.76,0,0,0,12.505,8.527Zm-6.215,3.6A3.209,3.209,0,0,1,3.145,8.859,3.209,3.209,0,0,1,6.291,5.59,3.209,3.209,0,0,1,9.436,8.859,3.207,3.207,0,0,1,6.291,12.128Zm0-5.448a2.009,2.009,0,0,0-.553.086,1.118,1.118,0,0,1-.1,1.412,1.016,1.016,0,0,1-1.359.107,2.217,2.217,0,0,0,.854,2.375,2.028,2.028,0,0,0,2.438-.08,2.225,2.225,0,0,0,.708-2.426A2.1,2.1,0,0,0,6.291,6.679Z" transform="translate(0 -4.5)" fill="#4e4e50"/></svg>