<svg xmlns="http://www.w3.org/2000/svg" width="19" height="19" viewBox="0 0 19 19"><rect width="19" height="19" rx="9.5" fill="#4e4e50"/><path d="M7.271,15.518a.792.792,0,0,1-.5-.181.764.764,0,0,1-.272-.771L7.611,8.9,7,9.241a.8.8,0,1,1-.793-1.382l2.108-1.2a.792.792,0,0,1,.861.045.83.83,0,0,1,.317.793L8.336,13.388l.952-.408a.792.792,0,1,1,.635,1.45L7.589,15.45A.724.724,0,0,1,7.271,15.518ZM9.515,4.686a1.154,1.154,0,0,0,.34-.793,1.063,1.063,0,0,0-.34-.793,1.154,1.154,0,0,0-.793-.34,1.063,1.063,0,0,0-.793.34,1.154,1.154,0,0,0-.34.793,1.063,1.063,0,0,0,.34.793,1.154,1.154,0,0,0,.793.34A1.063,1.063,0,0,0,9.515,4.686Z" transform="translate(1.49 0.301)" fill="#fff"/></svg>