<svg id="invoice-icon" xmlns="http://www.w3.org/2000/svg" width="14.986" height="16.83" viewBox="0 0 14.986 16.83">
  <path id="Path_14" data-name="Path 14" d="M16.788,17.844,16.819,2.79,15.174,2l-1.65.79L11.879,2l-1.651.79L8.583,2l-1.651.79L5.281,2l-1.65.79L3.6,17.844l1.385.3,1.911-.3,1.384.3,1.912-.3,1.384.3,1.912-.3,1.39.3Z" transform="translate(-2.631 -2)" fill="#0E73C9"/>
  <path id="Path_15" data-name="Path 15" d="M17.428,1.981,15.685,1.15a.507.507,0,0,0-.437,0l-1.53.727L12.2,1.15a.509.509,0,0,0-.437,0l-1.53.727L8.7,1.15a.507.507,0,0,0-.437,0l-1.53.727L5.207,1.15a.508.508,0,0,0-.436,0l-1.75.831a.508.508,0,0,0-.29.459V16.59a.509.509,0,0,0,.29.459l1.743.831a.507.507,0,0,0,.437,0l1.53-.727,1.524.727a.509.509,0,0,0,.437,0l1.53-.727,1.524.727a.507.507,0,0,0,.437,0l1.53-.727,1.53.727a.508.508,0,0,0,.436,0l1.748-.831a.508.508,0,0,0,.29-.459V2.44A.506.506,0,0,0,17.428,1.981ZM16.7,16.268l-1.24.59-1.53-.727a.508.508,0,0,0-.436,0l-1.53.727-1.524-.727a.507.507,0,0,0-.437,0l-1.53.727-1.524-.727a.509.509,0,0,0-.437,0l-1.53.727-1.236-.589V2.761l1.24-.59,1.53.727a.508.508,0,0,0,.436,0l1.53-.727,1.524.727a.507.507,0,0,0,.437,0l1.53-.727L13.5,2.9a.509.509,0,0,0,.437,0l1.53-.727,1.235.589V16.268Z" transform="translate(-2.731 -1.101)" fill="#0E73C9"/>
  <path id="Path_16" data-name="Path 16" d="M15.691,12.019c1.079.195,1.358.428,1.354.524-.018.544-1.733.615-1.975.622a.9.9,0,0,0-.919-.685.807.807,0,0,0-.88.7,1.276,1.276,0,0,0,.545,1.016,2.06,2.06,0,0,0,1.176.392v.13a.823.823,0,0,0,.9.712.823.823,0,0,0,.9-.712v-.32a4.257,4.257,0,0,0,1.313-.548,1.475,1.475,0,0,0,.74-1.264c.031-.959-.9-1.614-2.755-1.949-1.3-.234-1.346-.48-1.342-.528.044-.511,1.4-.6,1.962-.629a.925.925,0,0,0,1.8,0,1.3,1.3,0,0,0-.546-1.019,2,2,0,0,0-1.171-.388V7.937a.823.823,0,0,0-.9-.712.823.823,0,0,0-.9.712v.321c-1.634.378-1.994,1.209-2.041,1.75C12.868,11,13.789,11.678,15.691,12.019Z" transform="translate(-7.947 -3.225)" fill="#fff"/>
</svg>