<svg xmlns="http://www.w3.org/2000/svg" xmlns:xlink="http://www.w3.org/1999/xlink" width="88.573" height="37.533" viewBox="0 0 88.573 37.533"><defs><linearGradient id="a" x1="0.5" y1="1" x2="0.5" gradientUnits="objectBoundingBox"><stop offset="0" stop-color="#20b038"/><stop offset="1" stop-color="#60d66a"/></linearGradient></defs><g transform="translate(-923 -667.401)"><g transform="translate(923 671.927)"><path d="M19.505,72.426h6.056V57.743L16.9,51.3V69.855A2.592,2.592,0,0,0,19.505,72.426Z" transform="translate(-16.9 -43.944)" fill="#4285f4"/><path d="M100.3,72.426h6.056a2.6,2.6,0,0,0,2.605-2.605V51.3l-8.626,6.479V72.426Z" transform="translate(-70.935 -43.944)" fill="#34a853"/><path d="M100.3,33.036V44.268l8.626-6.479V34.339a3.887,3.887,0,0,0-6.232-3.1Z" transform="translate(-70.935 -30.433)" fill="#fbbc04"/><path d="M41.4,49V37.8l10.352,7.781L62.1,37.8V49.032L51.787,56.778Z" transform="translate(-32.774 -35.197)" fill="#ea4335" fill-rule="evenodd"/><path d="M16.9,34.278v3.451l8.626,6.479v-11.2L23.1,31.18A3.886,3.886,0,0,0,16.9,34.278Z" transform="translate(-16.9 -30.408)" fill="#c5221f"/></g><g transform="translate(974.208 667.401)"><path d="M31.921,5.454A18.606,18.606,0,0,0,2.639,27.9L0,37.533l9.862-2.586a18.592,18.592,0,0,0,8.89,2.264h.008A18.606,18.606,0,0,0,31.921,5.454ZM18.761,34.07h-.006a15.444,15.444,0,0,1-7.87-2.155l-.565-.335L4.467,33.114l1.563-5.7-.368-.585a15.464,15.464,0,1,1,13.1,7.244Z" transform="translate(0 0)" fill="#e0e0e0"/><path d="M27.875,56.9l2.519-9.2a17.755,17.755,0,1,1,15.385,8.889h-.008a17.749,17.749,0,0,1-8.484-2.16Z" transform="translate(-27.021 -20.432)" fill="url(#a)"/><path d="M312.037,323.833c-.344-.765-.707-.781-1.034-.794-.268-.011-.575-.011-.881-.011a1.688,1.688,0,0,0-1.225.575,5.151,5.151,0,0,0-1.608,3.832,8.94,8.94,0,0,0,1.876,4.753c.23.306,3.179,5.094,7.85,6.936,3.882,1.531,4.672,1.226,5.514,1.15a4.641,4.641,0,0,0,3.1-2.185,3.84,3.84,0,0,0,.268-2.185c-.115-.191-.421-.306-.881-.536s-2.719-1.342-3.14-1.495-.728-.23-1.034.23-1.187,1.494-1.455,1.8-.536.345-1,.116a12.567,12.567,0,0,1-3.7-2.281,13.839,13.839,0,0,1-2.556-3.182c-.268-.46-.029-.709.2-.938.206-.206.46-.536.689-.8a3.159,3.159,0,0,0,.459-.766.846.846,0,0,0-.038-.8C313.339,327.014,312.446,324.741,312.037,323.833Z" transform="translate(-297.874 -313.131)" fill="#fff" fill-rule="evenodd"/><path d="M38.555,5.506A18.393,18.393,0,0,0,9.609,27.689L7,37.216l9.749-2.556A18.378,18.378,0,0,0,25.538,36.9h.008A18.392,18.392,0,0,0,38.555,5.506ZM25.545,33.793H25.54a15.267,15.267,0,0,1-7.78-2.13l-.558-.331-5.785,1.517,1.545-5.639-.364-.578a15.286,15.286,0,1,1,12.949,7.161Z" transform="translate(-6.785 -0.111)" fill="#fff"/></g></g></svg>