<svg id="notification" xmlns="http://www.w3.org/2000/svg" xmlns:xlink="http://www.w3.org/1999/xlink" width="49" height="46" viewBox="0 0 49 46">
  <defs>
    <clipPath id="clip-path">
      <rect id="Rectangle_146" data-name="Rectangle 146" width="24" height="24" fill="#fff"/>
    </clipPath>
  </defs>
  <path id="Rectangle_944" data-name="Rectangle 944" d="M330,0h33a8,8,0,0,1,8,8V38a8,8,0,0,1-8,8H330a8,8,0,0,1-8-8V8A8,8,0,0,1,330,0Z" transform="translate(-322)" fill="#fff"/>
  <g id="bell_1_" data-name="bell (1)" transform="translate(13 11)" clip-path="url(#clip-path)">
    <g id="Group_627" data-name="Group 627">
      <path id="Path_896" data-name="Path 896" d="M5.69,13.38l-1-.01v.01Zm.02-2.1,1,.01v-.01Zm12.65,2.1-1-.01v.01Zm.02-2,1,.01v-.01ZM9.5,20a1,1,0,0,0,0,2Zm5,2a1,1,0,1,0,0-2ZM3.06,6.02a1,1,0,1,0,1.87.71ZM7.31,3.87a1,1,0,1,0-.98-1.74ZM17.67,2.14a1,1,0,1,0-1.01,1.73Zm1.39,4.57a1,1,0,0,0,1.87-.69ZM5.43,17.42a7.226,7.226,0,0,0,1.26-4.04h-2a5.219,5.219,0,0,1-.92,2.92Zm1.26-4.03.02-2.1-2-.02-.02,2.1Zm13.56,2.94a5.514,5.514,0,0,1-.89-2.95h-2a7.47,7.47,0,0,0,1.21,4.04Zm-.89-2.94.02-2-2-.02-.02,2Zm.02-2.01c0-4.4-3.2-8.18-7.38-8.18v2c2.86,0,5.38,2.65,5.38,6.18Zm-.36,7.47a1.482,1.482,0,0,0,1.36-1,1.7,1.7,0,0,0-.14-1.52l-1.68,1.09a.441.441,0,0,1-.07-.19.277.277,0,0,1,.01-.09.321.321,0,0,1,.11-.14.622.622,0,0,1,.41-.15ZM6.71,11.28c0-3.47,2.47-6.07,5.29-6.07v-2c-4.13,0-7.29,3.73-7.29,8.07ZM4.98,16.85a.622.622,0,0,1,.41.15.271.271,0,0,1,.1.14.2.2,0,0,1,.01.08.337.337,0,0,1-.07.19L3.77,16.29a1.7,1.7,0,0,0-.16,1.53,1.489,1.489,0,0,0,1.37,1.02Zm14.04,0H4.97v2H19.02ZM9.5,22h5V20h-5ZM4.93,6.73A5.485,5.485,0,0,1,7.31,3.86L6.32,2.12A7.518,7.518,0,0,0,3.06,6.01ZM16.66,3.87a5.487,5.487,0,0,1,2.4,2.84l1.88-.69a7.528,7.528,0,0,0-3.27-3.88Z" fill="#0e73c9"/>
    </g>
  </g>
</svg>
