<svg xmlns="http://www.w3.org/2000/svg" width="18.63" height="16.44" viewBox="0 0 18.63 16.44"><rect width="11.579" height="12.564" transform="translate(7.051 3.876)" fill="none"/><path d="M6.722,10.477,5.006,9.036a.557.557,0,0,0-.429-.131l-.286.131-4,1.7C0,10.87,0,11,0,11.263A3.207,3.207,0,0,0,1.144,13.62a4.31,4.31,0,0,0,3,1.048,9.368,9.368,0,0,0,4-.917,18.822,18.822,0,0,0,4-2.619A22.33,22.33,0,0,0,14.3,8.251a17.4,17.4,0,0,0,1.43-2.881,7.411,7.411,0,0,0,.286-2.488,3.326,3.326,0,0,0-1-1.964A4.586,4.586,0,0,0,12.3,0a.767.767,0,0,0-.572.262L9.583,3.929a.447.447,0,0,1-.143.262.456.456,0,0,0,.143.393l1.859,1.572a.544.544,0,0,1,0,.655,12.666,12.666,0,0,1-1.716,2.1,14.274,14.274,0,0,1-2.289,1.7C7.152,10.739,6.866,10.739,6.722,10.477Z" transform="translate(0 0)" fill="#0E73C9"/></svg>