<svg id="trailer-icon" xmlns="http://www.w3.org/2000/svg" width="16" height="16" viewBox="0 0 16 16">
  <rect id="Rectangle_562" data-name="Rectangle 562" width="16" height="16" fill="none"/>
  <path id="Path_150" data-name="Path 150" d="M3.634,11.8a1.614,1.614,0,0,1-.227.681c-.227.227-.341.227-.681.227H.909a1.614,1.614,0,0,1-.681-.227C0,12.366,0,12.025,0,11.8V6.574a1.031,1.031,0,0,1,.341-.8l.681-.341A14.769,14.769,0,0,1,6.7,4.529a15.66,15.66,0,0,1,5.906.909c.227.114.341.227.568.341a.857.857,0,0,1,.454.8V11.8a1.614,1.614,0,0,1-.227.681c-.114.227-.341.227-.681.227H10.9a1.614,1.614,0,0,1-.681-.227c-.227-.114-.227-.341-.227-.681V10.89H3.634Zm.341-9.2a4.708,4.708,0,0,0-1.817.341C1.59,3.28,1.136,3.507.909,3.962V1.917a.687.687,0,0,1,.341-.681C2.385.441,4.2.1,6.814.1H8.4a7.635,7.635,0,0,1,2.044.341,6.177,6.177,0,0,1,1.931.8.982.982,0,0,1,.341.681V3.962a2.75,2.75,0,0,0-1.249-.909,4.708,4.708,0,0,0-1.817-.341,3.628,3.628,0,0,0-1.59.341,3.194,3.194,0,0,0-1.249.568,6.158,6.158,0,0,0-1.249-.681A3.628,3.628,0,0,0,3.975,2.6Z" transform="translate(1 1.9)" fill="#2699fb"/>
</svg>
