<svg xmlns="http://www.w3.org/2000/svg" width="19.847" height="21.001" viewBox="0 0 19.847 21.001"><path d="M20.4,7.785l-.715,13.339a.933.933,0,0,1-.923.877H7.085a.933.933,0,0,1-.923-.877L5.446,7.785a.924.924,0,1,1,1.846-.092l.669,12.462h9.947l.669-12.462a.913.913,0,1,1,1.823.092Zm2.446-3.092a.926.926,0,0,1-.923.923h-18a.923.923,0,0,1,0-1.846H9V1.692A.667.667,0,0,1,9.739,1h6.37a.667.667,0,0,1,.738.692V3.769h5.077A.926.926,0,0,1,22.847,4.692ZM10.616,3.769h4.616V2.615H10.616Zm.392,15a.864.864,0,0,0,.808-.877l-.231-9.97a.823.823,0,0,0-.831-.808.789.789,0,0,0-.785.831l.231,9.993a.838.838,0,0,0,.808.831Zm3.808,0a.818.818,0,0,0,.808-.808l.231-9.97a.808.808,0,0,0-1.615-.046l-.231,9.97a.814.814,0,0,0,.808.854Z" transform="translate(-3 -1)" fill="#d20000"/></svg>