<svg xmlns="http://www.w3.org/2000/svg" width="18.649" height="12.852" viewBox="0 0 18.649 12.852">
  <path  d="M18.106,11.213H15.563V8H3.7A1.652,1.652,0,0,0,2,9.606v8.836H3.7a2.481,2.481,0,0,0,2.543,2.41,2.481,2.481,0,0,0,2.543-2.41h5.086a2.547,2.547,0,0,0,5.086,0h1.7V14.426ZM6.238,19.647a1.207,1.207,0,1,1,0-2.41,1.207,1.207,0,1,1,0,2.41Zm11.444-7.229,1.666,2.008H15.563V12.418Zm-1.272,7.229a1.207,1.207,0,1,1,1.272-1.2A1.238,1.238,0,0,1,16.411,19.647Z" transform="translate(-2 -8)" fill="#2699fb"/>
</svg>
